<svg width="141" height="48" viewBox="0 0 141 48" fill="none" xmlns="http://www.w3.org/2000/svg">
<g clip-path="url(#clip0_18_82875)">
<path d="M32.7196 18.1689C32.2764 17.0622 31.1966 15.8671 29.1743 16.0312C26.5982 16.3113 25.7954 18.7801 26.1848 20.2528C25.1588 19.5581 23.4142 19.2526 21.8914 20.557C19.9253 22.5279 20.9769 25.1933 22.0578 25.8326C20.8666 25.7223 18.9839 26.5272 18.5675 28.6328C18.1244 31.247 20.1172 32.771 22.0578 32.771H43.5763C45.8202 32.771 47.0652 30.8297 46.9256 28.9989C46.7055 26.6095 44.519 25.6928 43.3263 25.8892C44.3227 25.3332 45.6535 22.7217 43.6299 20.6687C42.0236 19.1408 39.9759 19.6967 39.2558 20.3631C39.644 19.0867 39.0075 16.4483 36.4022 16.031C36.222 16.0108 36.0486 16 35.8834 16C33.8946 16.0003 33.0003 17.4541 32.7196 18.1689Z" fill="white"/>
<path d="M22.2499 20.973C21.1138 22.0014 20.7003 24.3317 22.7483 25.694L30.9186 31.2994L26.9571 22.2235C26.1269 20.0818 23.856 19.6148 22.2499 20.973Z" fill="#101010"/>
<path d="M29.2832 16.5608C27.9551 16.5879 25.9608 18.1694 26.8483 20.5844L30.9456 30.2475L32.3854 20.0838C32.7185 17.5584 30.8073 16.3926 29.2832 16.5608Z" fill="#101010"/>
<path d="M33.0244 19.6964H33.7992C33.7992 19.6964 34.2128 19.6964 34.2691 19.8915C33.9642 20.1405 33.1345 20.1717 33.2447 21.5016L34.5471 30.2463L38.6164 20.5579C39.4487 18.3947 37.7016 16.588 36.1518 16.5328C36.0795 16.5276 36.0068 16.5234 35.9316 16.5234C34.5406 16.5234 32.9465 17.5343 33.0244 19.6964Z" fill="#101010"/>
<path d="M38.4527 22.3049L34.6038 31.2719L42.7717 25.6369C44.6545 24.3014 44.3508 22.1663 43.2969 21.111C42.855 20.6142 42.0438 20.2305 41.1844 20.2305C40.1691 20.2303 39.0825 20.7689 38.4527 22.3049Z" fill="#101010"/>
<path d="M41.8573 26.9145L34.1866 32.2724H43.6314C45.5691 32.2724 46.8143 30.2745 46.2608 28.4411C45.89 27.2887 44.7931 26.3841 43.5199 26.3828C42.984 26.383 42.4157 26.5444 41.8573 26.9145Z" fill="#101010"/>
<path d="M22.0297 32.272H31.3351L23.6625 26.9141C21.89 25.7753 19.8969 26.4417 19.1773 28.3316C18.5674 30.495 20.0903 32.272 22.0297 32.272Z" fill="#101010"/>
<path d="M49.1808 24.2424C49.1808 26.6006 51.1087 30.8932 58.4699 30.8932C65.2568 30.8932 67.4003 27.779 67.4003 26.3511H62.146C62.146 26.3511 61.8965 28.2376 58.9325 28.2376C55.9666 28.2376 55.1645 25.762 55.1645 24.3305C55.1645 22.9045 55.9666 20.5626 58.9325 20.5626C61.8965 20.5626 62.146 22.205 62.146 22.205H67.4003C67.4003 20.7754 65.8276 17.7051 58.4699 17.7051C51.1087 17.7051 49.1808 22.2768 49.1808 24.2424Z" fill="white"/>
<path d="M104.285 24.2424C104.285 26.6006 106.215 30.8932 113.574 30.8932C120.36 30.8932 122.504 27.779 122.504 26.3511H117.254C117.254 26.3511 117.003 28.2376 114.038 28.2376C111.072 28.2376 110.269 25.762 110.269 24.3305C110.269 22.9045 111.072 20.5626 114.038 20.5626C117.003 20.5626 117.254 22.205 117.254 22.205H122.504C122.504 20.7754 120.933 17.7051 113.574 17.7051C106.215 17.7051 104.285 22.2768 104.285 24.2424Z" fill="white"/>
<path d="M81.7603 17.9258V25.9091L75.6454 17.9258H68.7667V30.5707H73.4825V22.4956L79.4903 30.5707H86.4764V17.9258H81.7603Z" fill="white"/>
<path d="M96.8715 27.5498V27.5664H92.9421V25.2447H96.8715V25.2522C97.7105 25.2522 98.3885 25.7679 98.3885 26.4028C98.3885 27.0362 97.7105 27.5498 96.8715 27.5498ZM92.9782 20.3851H96.7643V20.3905C97.4058 20.3905 97.9259 20.8125 97.9259 21.3319C97.9259 21.8533 97.4058 22.2717 96.7643 22.2717V22.2773H92.9782V20.3851ZM100.731 23.8482C101.59 23.8482 103.385 22.8516 103.385 20.9209C103.385 18.1717 98.2647 17.9258 97.4794 17.9258H88.047V30.5707H97.4794C102.016 30.5707 103.839 29.1375 103.839 26.7442C103.839 24.3509 100.731 23.8482 100.731 23.8482Z" fill="white"/>
</g>
<defs>
<clipPath id="clip0_18_82875">
<rect width="140" height="48" fill="white" transform="translate(0.505005)"/>
</clipPath>
</defs>
</svg>
