<svg width="101" height="24" viewBox="0 0 101 24" fill="none" xmlns="http://www.w3.org/2000/svg">
<g clip-path="url(#clip0_18_82851)">
<path d="M17.9352 12.3591H11.6009C11.5252 12.3591 11.4639 12.4205 11.4639 12.4963V14.2797C11.4639 14.3554 11.5252 14.4169 11.6009 14.4169H17.3676C17.6632 13.7801 17.8591 13.0874 17.9352 12.3591Z" fill="white"/>
<path d="M16.5089 15.7891H11.6009C11.5252 15.7891 11.4639 15.8504 11.4639 15.9262V17.8468C11.4639 18.0362 11.6174 18.1906 11.8063 18.1808C13.702 18.0824 15.3831 17.1715 16.5089 15.7891Z" fill="white"/>
<path d="M17.9352 10.9873H11.6009C11.5252 10.9873 11.4639 10.9259 11.4639 10.8501V9.06676C11.4639 8.991 11.5252 8.92957 11.6009 8.92957H17.3676C17.6632 9.56635 17.8591 10.259 17.9352 10.9873Z" fill="white"/>
<path d="M16.5089 7.55827C15.3831 6.17588 13.702 5.26489 11.8063 5.16646C11.6174 5.15665 11.4639 5.31114 11.4639 5.50055V7.42111C11.4639 7.49688 11.5252 7.55827 11.6009 7.55827H16.5089Z" fill="white"/>
<path fill-rule="evenodd" clip-rule="evenodd" d="M11.4639 20.5907C16.3815 20.5907 20.368 16.5985 20.368 11.6739C20.368 6.74919 16.3815 2.75697 11.4639 2.75697C6.54631 2.75697 2.5598 6.74919 2.5598 11.6739C2.5598 16.5985 6.54631 20.5907 11.4639 20.5907ZM11.4639 22.6485C17.5164 22.6485 22.4228 17.735 22.4228 11.6739C22.4228 5.61273 17.5164 0.699219 11.4639 0.699219C5.41148 0.699219 0.505005 5.61273 0.505005 11.6739C0.505005 17.735 5.41148 22.6485 11.4639 22.6485Z" fill="white"/>
<path d="M35.2162 18.3038C34.3107 18.3038 33.4724 18.1384 32.7014 17.8075C31.9427 17.4766 31.2758 17.017 30.7006 16.4288C30.1377 15.8283 29.6972 15.1297 29.3789 14.3332C29.0731 13.5243 28.92 12.642 28.92 11.6861C28.92 10.7302 29.0731 9.85398 29.3789 9.0574C29.6972 8.24856 30.1377 7.55 30.7006 6.96176C31.2758 6.36126 31.9427 5.89558 32.7014 5.56469C33.4724 5.2338 34.3107 5.06836 35.2162 5.06836C36.1218 5.06836 36.9539 5.2338 37.7126 5.56469C38.4836 5.89558 39.1506 6.36126 39.7135 6.96176C40.2887 7.56226 40.7292 8.26692 41.0351 9.07576C41.3533 9.87233 41.5124 10.7424 41.5124 11.6861C41.5124 12.6297 41.3533 13.506 41.0351 14.3148C40.7292 15.1114 40.2887 15.8099 39.7135 16.4103C39.1506 17.0109 38.4836 17.4766 37.7126 17.8075C36.9539 18.1384 36.1218 18.3038 35.2162 18.3038ZM35.2162 16.3736C35.8403 16.3736 36.4094 16.2572 36.9233 16.0243C37.4496 15.7915 37.9024 15.4667 38.2817 15.0501C38.6611 14.6212 38.9548 14.1248 39.1628 13.5611C39.3831 12.9851 39.4932 12.3601 39.4932 11.6861C39.4932 11.0121 39.3831 10.3932 39.1628 9.82946C38.9548 9.25343 38.6611 8.75713 38.2817 8.34048C37.9024 7.91151 37.4496 7.58062 36.9233 7.34779C36.4094 7.11495 35.8403 6.99852 35.2162 6.99852C34.5921 6.99852 34.017 7.11495 33.4907 7.34779C32.9768 7.58062 32.524 7.90541 32.1324 8.32206C31.7531 8.73877 31.4594 9.23507 31.2513 9.81103C31.0433 10.3748 30.9392 10.9998 30.9392 11.6861C30.9392 12.3601 31.0433 12.9851 31.2513 13.5611C31.4594 14.1371 31.7531 14.6334 32.1324 15.0501C32.524 15.4667 32.9768 15.7915 33.4907 16.0243C34.017 16.2572 34.5921 16.3736 35.2162 16.3736Z" fill="white"/>
<path d="M43.1075 18.1208V8.47001H44.9982V10.4554L44.6678 10.676C44.7902 10.247 45.0288 9.85488 45.3837 9.49947C45.7386 9.1318 46.1608 8.83769 46.6503 8.61714C47.1398 8.38426 47.6415 8.26782 48.1555 8.26782C48.8897 8.26782 49.5016 8.41488 49.9911 8.70899C50.4806 8.9909 50.8478 9.4259 51.0925 10.0142C51.3372 10.6024 51.4596 11.3439 51.4596 12.2384V18.1208H49.5689V12.3671C49.5689 11.8156 49.4955 11.3622 49.3486 11.0069C49.2018 10.6392 48.9754 10.3757 48.6695 10.2164C48.3635 10.0448 47.9842 9.97132 47.5314 9.99577C47.1643 9.99577 46.8277 10.0571 46.5218 10.1796C46.2158 10.2899 45.9467 10.4493 45.7141 10.6575C45.4938 10.8659 45.3164 11.111 45.1818 11.3929C45.0594 11.6625 44.9982 11.9566 44.9982 12.2752V18.1208H44.0621C43.903 18.1208 43.7439 18.1208 43.5848 18.1208C43.4257 18.1208 43.2667 18.1208 43.1075 18.1208Z" fill="white"/>
<path d="M57.9025 18.1216V5.25391H62.9321C63.8499 5.25391 64.6759 5.40709 65.4101 5.71347C66.1566 6.01984 66.7929 6.46102 67.3192 7.03701C67.8454 7.61302 68.2492 8.29315 68.5307 9.07747C68.8121 9.86178 68.9529 10.7319 68.9529 11.6878C68.9529 12.6437 68.8121 13.5199 68.5307 14.3165C68.2492 15.1008 67.8454 15.781 67.3192 16.3569C66.8052 16.9207 66.175 17.3558 65.4285 17.6621C64.682 17.9685 63.8499 18.1216 62.9321 18.1216H57.9025ZM59.8849 16.4121L59.8299 16.2099H62.8403C63.4888 16.2099 64.064 16.1057 64.5658 15.8974C65.0797 15.689 65.508 15.3949 65.8507 15.015C66.2055 14.6229 66.4748 14.1449 66.6584 13.5812C66.8419 13.0175 66.9337 12.3863 66.9337 11.6878C66.9337 10.9892 66.8419 10.3642 66.6584 9.81274C66.4748 9.24904 66.2055 8.7711 65.8507 8.37891C65.4958 7.98678 65.0675 7.68651 64.5658 7.47819C64.064 7.26985 63.4888 7.16569 62.8403 7.16569H59.7748L59.8849 7.00024V16.4121Z" fill="white"/>
<path d="M75.4532 18.3052C74.4614 18.3052 73.5806 18.0968 72.8094 17.6802C72.0512 17.2513 71.4512 16.6692 71.0108 15.9339C70.5827 15.1986 70.3683 14.3529 70.3683 13.3971C70.3683 12.6373 70.4909 11.9449 70.7354 11.3199C70.9799 10.6949 71.3169 10.1556 71.745 9.70219C72.1854 9.23651 72.706 8.8811 73.3053 8.63603C73.9169 8.37863 74.5779 8.25 75.2875 8.25C75.9121 8.25 76.4929 8.37253 77.0313 8.6176C77.5703 8.85048 78.0347 9.17521 78.4265 9.59192C78.8306 10.0086 79.1361 10.5049 79.3443 11.0809C79.5649 11.6446 79.669 12.2635 79.6566 12.9375L79.6381 13.7464H71.7635L71.3409 12.239H78.0046L77.7292 12.5515V12.1103C77.6923 11.7059 77.558 11.3444 77.3251 11.0258C77.0929 10.7071 76.7991 10.4559 76.4443 10.2721C76.0895 10.0882 75.7039 9.9963 75.2875 9.9963C74.6272 9.9963 74.0703 10.125 73.6176 10.3823C73.1649 10.6275 72.8217 10.9951 72.5895 11.4853C72.3566 11.9632 72.2409 12.5576 72.2409 13.2684C72.2409 13.9424 72.3813 14.5307 72.6628 15.0332C72.9443 15.5234 73.3423 15.9032 73.856 16.1728C74.3697 16.4425 74.9635 16.5773 75.6368 16.5773C76.1135 16.5773 76.5546 16.4976 76.958 16.3383C77.3745 16.179 77.821 15.891 78.2984 15.4743L79.2525 16.8162C78.9587 17.1103 78.5977 17.3677 78.1697 17.5883C77.7539 17.8089 77.3066 17.9866 76.8299 18.1214C76.3649 18.244 75.906 18.3052 75.4532 18.3052Z" fill="white"/>
<path d="M85.7338 18.3047C84.84 18.3047 84.0386 18.0841 83.329 17.6429C82.6311 17.2017 82.0742 16.6012 81.6585 15.8415C81.2544 15.0817 81.053 14.2299 81.053 13.2862C81.053 12.3426 81.2544 11.4909 81.6585 10.7311C82.0742 9.97132 82.6311 9.37077 83.329 8.9296C84.0386 8.48844 84.84 8.26782 85.7338 8.26782C86.59 8.26782 87.3674 8.44556 88.0646 8.8009C88.7742 9.14406 89.3133 9.6159 89.6804 10.2164L88.6338 11.5032C88.4379 11.2213 88.1872 10.9639 87.8811 10.7311C87.5756 10.4982 87.2509 10.3144 86.9085 10.1796C86.566 10.0448 86.2352 9.97741 85.9174 9.97741C85.3297 9.97741 84.8037 10.1245 84.3386 10.4186C83.8859 10.7004 83.5249 11.0926 83.2557 11.5951C82.9865 12.0975 82.8516 12.6612 82.8516 13.2862C82.8516 13.9112 82.992 14.475 83.2735 14.9775C83.555 15.4677 83.9283 15.8598 84.3934 16.1539C84.8585 16.448 85.3728 16.5952 85.9352 16.5952C86.266 16.5952 86.5838 16.5399 86.89 16.4297C87.2085 16.3194 87.5139 16.1539 87.8078 15.9334C88.1016 15.7128 88.377 15.4432 88.6338 15.1245L89.6804 16.4113C89.2886 16.9628 88.7256 17.4162 87.9913 17.7716C87.2694 18.127 86.5167 18.3047 85.7338 18.3047Z" fill="white"/>
<path d="M92.7783 15.107L92.6865 13.0482L97.2941 8.47095H99.8454L92.7783 15.107ZM91.053 18.1218V5.22656H92.9441V18.1218H91.053ZM97.5509 18.1218L93.9167 13.8754L95.2564 12.6438L99.9742 18.1218H97.5509Z" fill="white"/>
</g>
<defs>
<clipPath id="clip0_18_82851">
<rect width="100" height="24" fill="white" transform="translate(0.505005)"/>
</clipPath>
</defs>
</svg>
