<svg width="73" height="18" viewBox="0 0 73 18" fill="none" xmlns="http://www.w3.org/2000/svg">
<g clip-path="url(#clip0_18_82817)">
<g clip-path="url(#clip1_18_82817)">
<path fill-rule="evenodd" clip-rule="evenodd" d="M41.2943 5.86141C42.2026 5.36648 43.1105 5.11854 44.2663 5.11854C47.0738 5.11854 49.2203 7.59604 49.2203 10.9809C49.2203 15.2746 46.5783 17.9995 42.2021 17.9995C40.6329 17.9995 39.0638 17.7516 37.5775 17.4212C37.6605 15.687 37.744 5.11854 37.5775 3.13693C37.414 2.14564 37.1651 1.7332 36.4227 1.56822L35.8448 1.48574V0.990332L41.3773 0C41.2944 0.825356 41.2943 3.21941 41.2943 5.86141ZM41.3764 17.0087C41.6234 17.0907 42.0367 17.0907 42.3671 17.0907C44.1012 17.0907 45.34 14.5317 45.3405 11.2279C45.3405 8.58637 44.3498 6.43978 42.5322 6.43978C42.1188 6.43978 41.7888 6.52227 41.2934 6.68772C41.2114 10.9809 41.2934 15.8529 41.3764 17.0087Z" fill="white"/>
<path d="M0.505005 0.329956H15.0372L15.1201 5.20151L14.2943 5.44945C13.469 2.97195 12.3132 1.5687 10.0831 1.5687H7.19368C7.11071 3.1374 7.02822 5.7794 7.02822 8.58685L9.00937 8.50389C10.2481 8.50389 10.8251 7.51355 11.0735 6.10983H11.8168V11.9703H11.0735C10.8255 10.567 10.2481 9.57623 9.00937 9.57623L7.02775 9.49374C7.02775 11.6399 7.11023 13.374 7.1932 14.4478C7.35817 16.017 7.77109 16.7598 8.84439 16.8418L9.83521 17.0078V17.6682H0.505005V17.0078L1.33084 16.8418C2.40413 16.7603 2.81658 16.017 2.98155 14.4478C3.14701 11.8892 3.22996 6.52179 2.98155 3.54937C2.81705 1.98066 2.40365 1.32028 1.33084 1.15531L0.505005 1.07282V0.329956Z" fill="white"/>
<path fill-rule="evenodd" clip-rule="evenodd" d="M25.9369 11.4759C25.9369 7.76058 23.8727 4.95312 19.7441 4.95312C15.6154 4.95312 13.3038 7.92555 13.3038 11.4759C13.3038 15.1917 15.3679 17.9996 19.4961 17.9996C23.6248 17.9996 25.9369 15.0262 25.9369 11.4759ZM17.1841 11.4759C17.1841 8.25598 17.6795 5.77895 19.4961 5.77895C21.2307 5.77895 22.0556 8.33847 22.0556 11.4759C22.0556 14.6958 21.5593 17.1728 19.6616 17.1728C18.0099 17.1728 17.1841 14.6133 17.1841 11.4759Z" fill="white"/>
<path fill-rule="evenodd" clip-rule="evenodd" d="M56.6509 4.95312C52.4397 4.95312 50.2931 8.17349 50.2931 11.5589C50.2931 15.3571 52.9351 17.9991 56.6509 17.9996C58.9624 17.9996 60.7786 16.8429 61.6044 15.6871L61.2749 15.2746C60.4486 15.853 59.7883 16.1825 58.467 16.1825C55.4941 16.1825 54.0079 13.9529 54.0909 10.898H61.7699C61.7699 7.51311 60.1177 4.95312 56.6509 4.95312ZM57.9716 9.90717L54.0909 9.99014C54.1729 8.09053 54.9172 5.77895 56.3204 5.77895C57.7237 5.77895 57.9716 8.25598 57.9716 9.90717Z" fill="white"/>
<path d="M67.7998 4.95312C69.286 4.95312 70.6068 5.20059 71.5976 5.61398L71.682 8.83387L71.1046 8.99885C70.3603 6.76929 69.3695 5.86097 67.8842 5.86097C66.8934 5.86097 66.1491 6.60432 66.1491 7.67761C66.1491 8.75139 66.974 9.32928 69.2865 10.2372C71.4331 11.0635 72.3419 12.0538 72.3419 13.7879C72.3419 16.347 70.2773 17.9991 67.057 17.9991C65.4878 17.9991 63.6716 17.6682 62.6808 17.2558L62.5978 13.623L63.1762 13.457C64.084 15.9345 65.2408 16.8424 66.809 16.8424C68.1302 16.8424 68.8736 15.9345 68.8736 14.9437C68.8736 13.9529 68.2952 13.3746 66.2316 12.6322C64.2476 11.9713 62.8453 11.0635 62.8453 8.91636C62.8453 6.76929 64.7454 4.95312 67.7998 4.95312Z" fill="white"/>
<path d="M31.4682 7.84344C32.789 4.87054 35.2664 4.45858 36.6697 5.28346L35.3485 8.66927C33.6973 7.59598 31.8806 8.09091 31.4682 8.66927C31.3852 10.6509 31.3852 13.7883 31.5502 15.3575C31.6332 16.3474 31.8811 16.8428 32.7065 16.9257L33.6973 17.0087V17.6691H26.0187V17.0087L26.5966 16.9257C27.3405 16.8428 27.6699 16.3474 27.7529 15.3575C27.8354 13.6238 27.9179 10.1555 27.7529 8.17387C27.6699 7.1001 27.3405 6.68766 26.5966 6.60469L26.0187 6.5222V6.0268L31.5502 4.9535L31.4682 7.84344Z" fill="white"/>
</g>
</g>
<defs>
<clipPath id="clip0_18_82817">
<rect width="72" height="18" fill="white" transform="translate(0.505005)"/>
</clipPath>
<clipPath id="clip1_18_82817">
<rect width="72" height="18" fill="white" transform="translate(0.505005)"/>
</clipPath>
</defs>
</svg>
