<svg width="184" height="12" viewBox="0 0 184 12" fill="none" xmlns="http://www.w3.org/2000/svg">
<g clip-path="url(#clip0_18_82826)">
<g clip-path="url(#clip1_18_82826)">
<g clip-path="url(#clip2_18_82826)">
<mask id="mask0_18_82826" style="mask-type:luminance" maskUnits="userSpaceOnUse" x="0" y="0" width="183" height="12">
<path d="M182.686 0H0.505005V12H182.686V0Z" fill="white"/>
</mask>
<g mask="url(#mask0_18_82826)">
<path d="M125.635 3.30394C125.635 5.18448 126.8 6.0031 128.335 6.56402L129.999 7.15971C131.027 7.55164 131.614 7.90282 131.614 8.79574C131.614 9.82171 130.694 10.2855 129.382 10.2855C128.069 10.2855 126.778 9.80134 125.732 8.96234V10.9963C126.536 11.5548 127.845 11.9971 129.382 11.9971C131.722 11.9971 133.505 10.8453 133.505 8.76098C133.505 7.10457 132.68 6.09538 130.883 5.44696L129.029 4.77817C128.071 4.44137 127.527 4.10577 127.527 3.26678C127.527 2.33909 128.394 1.89323 129.554 1.89323C130.901 1.89323 131.949 2.39423 132.906 3.12295V1.12495C131.985 0.531665 130.807 0.197266 129.512 0.197266C127.4 0.197266 125.635 1.29155 125.635 3.30394Z" fill="white"/>
<path d="M140.511 0.392578H138.56V11.822H140.511V0.392578Z" fill="white"/>
<path d="M105.336 0.392578H103.382V11.822H105.336V0.392578Z" fill="white"/>
<path d="M148.167 2.10412H150.553C152.967 2.10412 154.258 3.64547 154.258 6.10372C154.258 8.56197 152.967 10.0925 150.553 10.0925H148.167V2.10412ZM146.218 0.392578V11.8209H150.626C154.019 11.8209 156.214 9.58674 156.214 6.10372C156.214 2.6207 154.019 0.392578 150.626 0.392578H146.218Z" fill="white"/>
<path d="M160.337 0.392578V11.8209H167.309V10.0925H162.247V6.54599H166.786V4.85362H162.247V2.10412H167.309V0.392578H160.337Z" fill="white"/>
<path d="M175.085 2.07056H177.271C178.566 2.07056 179.296 2.75973 179.296 3.82046C179.296 4.88119 178.566 5.56916 177.271 5.56916H175.085V2.07056ZM173.14 0.393776V11.822H175.085V7.18482H176.469L180.474 11.822H182.686L178.55 7.11291C180.368 6.83125 181.222 5.73337 181.222 3.81926C181.222 1.58155 179.685 0.392578 177.307 0.392578H173.139L173.14 0.393776Z" fill="white"/>
<path d="M26.8998 3.16722C26.8998 5.07773 28.0708 5.90953 29.6181 6.47765L31.2985 7.08292C32.3365 7.48084 32.9214 7.83921 32.9214 8.74772C32.9214 9.78808 31.9973 10.2615 30.6753 10.2615C29.3532 10.2615 28.0516 9.7701 26.9945 8.91912V10.9806C27.8059 11.5487 29.1279 12.0018 30.6753 12.0018C33.0364 12.0018 34.8295 10.8296 34.8295 8.71057C34.8295 7.02659 33.9989 6.00661 32.1866 5.34381L30.3181 4.66302C29.3544 4.32263 28.8079 3.98224 28.8079 3.13126C28.8079 2.1856 29.6769 1.73134 30.8467 1.73134C32.2058 1.73134 33.263 2.24193 34.2254 2.97905V0.954676C33.3001 0.349402 32.1099 0.0078125 30.8071 0.0078125C28.6737 0.0078125 26.8986 1.12367 26.8986 3.16602" fill="white"/>
<path d="M85.9044 3.15821C85.9044 5.06872 87.0754 5.90052 88.6227 6.46864L90.3031 7.07391C91.3411 7.47064 91.9272 7.8314 91.9272 8.73872C91.9272 9.77907 91.0019 10.2513 89.6811 10.2513C88.3603 10.2513 87.0562 9.75989 85.9991 8.90891V10.9704C86.8117 11.5374 88.1325 11.9916 89.6811 11.9916C92.041 11.9916 93.8341 10.8182 93.8341 8.70036C93.8341 7.01758 93.0035 5.99521 91.1913 5.3336L89.3227 4.65282C88.3602 4.31243 87.8125 3.97203 87.8125 3.11986C87.8125 2.17419 88.6815 1.71994 89.8513 1.71994C91.2116 1.71994 92.2688 2.23052 93.2312 2.96884V0.945665C92.3059 0.340392 91.1169 0 89.8141 0C87.6807 0 85.9056 1.11586 85.9056 3.15821" fill="white"/>
<path d="M74.048 3.15821C74.048 5.06872 75.219 5.90052 76.7664 6.46864L78.4468 7.07391C79.4847 7.47064 80.0708 7.8314 80.0708 8.73872C80.0708 9.77907 79.1455 10.2513 77.8247 10.2513C76.5039 10.2513 75.2011 9.75989 74.1427 8.90891V10.9704C74.9542 11.5374 76.2762 11.9916 77.8247 11.9916C80.1847 11.9916 81.9777 10.8182 81.9777 8.70036C81.9777 7.01758 81.1459 5.99521 79.3349 5.3336L77.4651 4.65282C76.5027 4.31243 75.9561 3.97203 75.9561 3.11986C75.9561 2.17419 76.8239 1.71994 77.9937 1.71994C79.3541 1.71994 80.4112 2.23052 81.3736 2.96884V0.945665C80.4484 0.340392 79.2594 0 77.9565 0C75.8231 0 74.048 1.11586 74.048 3.15821Z" fill="white"/>
<path d="M62.549 0.197266V11.8113H69.5714V10.0542H64.4727V6.45136H69.0452V4.73142H64.4727V1.93638H69.5714V0.197266H62.549Z" fill="white"/>
<path d="M2.41191 6.70426H4.90372C6.22573 6.70426 6.94247 7.34788 6.94247 8.40621C6.94247 9.46454 6.22573 10.1081 4.90372 10.1081H2.41191V6.70426ZM2.41191 1.90042H4.54535C5.88654 1.90042 6.60328 2.37265 6.60328 3.46934C6.60328 4.56602 5.88534 5.07781 4.54535 5.07781H2.41191V1.90042ZM0.505005 0.197266V11.8113H4.94208C7.35837 11.8113 8.86856 10.6571 8.86856 8.48292C8.86856 7.2532 8.07631 6.17569 6.98083 5.81612C7.83062 5.51289 8.49102 4.60557 8.49102 3.35667C8.49102 1.27597 6.98083 0.197266 4.56333 0.197266H0.505005Z" fill="white"/>
<path d="M41.8443 0.197266H39.881V11.8113H41.8443V0.197266Z" fill="white"/>
<path d="M20.4068 0.197266V6.96914C20.4068 9.20086 19.4624 10.2412 17.7257 10.2412C15.9889 10.2412 15.0445 9.20086 15.0445 6.96914V0.197266H13.0812V7.17769C13.0812 10.373 14.969 12.0007 17.7257 12.0007C20.4824 12.0007 22.3701 10.3742 22.3701 7.19566V0.197266H20.4068Z" fill="white"/>
<path d="M55.4144 0.196608V7.6217L47.4464 0.015625V11.8107H49.3377V4.25614L57.3009 11.9917V0.196608H55.4144Z" fill="white"/>
<path d="M110.931 11.8205H112.809V4.38703L120.714 11.9967V0.391033H118.84V7.69746L110.931 0.214844V11.8205Z" fill="white"/>
</g>
</g>
</g>
</g>
<defs>
<clipPath id="clip0_18_82826">
<rect width="183" height="12" fill="white" transform="translate(0.505005)"/>
</clipPath>
<clipPath id="clip1_18_82826">
<rect width="183" height="12" fill="white" transform="translate(0.505005)"/>
</clipPath>
<clipPath id="clip2_18_82826">
<rect width="183" height="12" fill="white" transform="translate(0.505005)"/>
</clipPath>
</defs>
</svg>
