<svg width="143" height="20" viewBox="0 0 143 20" fill="none" xmlns="http://www.w3.org/2000/svg">
<g clip-path="url(#clip0_18_82795)">
<g clip-path="url(#clip1_18_82795)">
<g clip-path="url(#clip2_18_82795)">
<mask id="mask0_18_82795" style="mask-type:luminance" maskUnits="userSpaceOnUse" x="0" y="0" width="143" height="20">
<path d="M142.333 0H0.505005V20H142.333V0Z" fill="white"/>
</mask>
<g mask="url(#mask0_18_82795)">
<path d="M53.8166 7.8152V16.6677H50.5826V7.8152H47.3156V4.99805H57.0845V7.8152H53.8166Z" fill="white"/>
<path d="M64.6332 13.1497H59.4988C59.5986 14.1162 60.165 14.5495 60.9827 14.5495C61.7495 14.5495 62.3834 14.3823 63.2501 13.9323L64.4004 15.8495C63.3175 16.4824 62.1995 16.8493 60.8339 16.8493C58.1997 16.8493 56.7491 14.9819 56.7491 12.2978C56.7491 9.28112 58.4492 7.73071 60.7498 7.73071C63.0505 7.73071 64.6508 9.31438 64.6508 12.5649C64.6508 12.8153 64.6508 12.9982 64.6341 13.1488L64.6332 13.1497ZM60.6657 9.94821C59.982 9.94821 59.5986 10.4148 59.4988 11.2815H61.9999C61.8493 10.3982 61.549 9.94821 60.6657 9.94821Z" fill="white"/>
<path d="M70.2158 16.8493C67.6491 16.8493 66.1153 15.2157 66.1153 12.2655C66.1153 9.5814 67.4828 7.73071 70.2823 7.73071C71.9325 7.73071 72.8833 8.4976 73.6502 9.73108L71.5833 11.2981C71.1666 10.5312 70.8829 10.1644 70.2334 10.1644C69.4656 10.1644 69.083 10.9313 69.083 12.3145C69.083 13.6976 69.4998 14.4146 70.3165 14.4146C70.8829 14.4146 71.283 14.0977 71.8337 13.2809L73.7343 14.7648C72.7179 16.2653 71.7662 16.8493 70.2158 16.8493Z" fill="white"/>
<path d="M80.4496 16.6662V11.6981C80.4496 10.5644 80.0661 10.2651 79.4499 10.2651C78.8336 10.2651 78.4326 10.5654 78.4326 11.6649V16.6662H75.4325V5.71365L78.4326 4.51343V8.49754C78.9823 8.08083 79.5995 7.73065 80.6334 7.73065C82.5507 7.73065 83.4682 9.01403 83.4682 11.3147V16.6662H80.4496Z" fill="white"/>
<path d="M90.6505 16.8499C87.1829 16.8499 85.3322 14.2822 85.3322 10.8322C85.3322 7.08184 87.5331 4.81445 90.6672 4.81445C93.5351 4.81445 94.6688 6.04793 95.469 8.2488L92.5354 9.39913C92.1178 8.31533 91.7186 7.6316 90.6514 7.6316C89.3015 7.6316 88.7176 8.9815 88.7176 10.8322C88.7176 12.6828 89.284 14.0328 90.6847 14.0328C91.7011 14.0328 92.1353 13.483 92.7682 12.3826L95.5022 13.8332C94.7187 15.3669 93.4178 16.8508 90.6514 16.8508L90.6505 16.8499Z" fill="white"/>
<path d="M102.882 11.2157C102.499 10.799 102.066 10.4821 101.483 10.4821C100.749 10.4821 100.298 10.8323 100.298 11.8985V16.6661H97.2979V7.91536H100.298V8.5492C100.815 8.04934 101.398 7.73242 102.165 7.73242C102.798 7.73242 103.232 7.8821 103.582 8.09923L102.881 11.2166L102.882 11.2157Z" fill="white"/>
<path d="M110.015 16.6658V16.0818C109.481 16.4985 108.848 16.8496 107.832 16.8496C105.915 16.8496 104.997 15.5663 104.997 13.2647V7.91406H108.015V12.8822C108.015 14.0149 108.398 14.3152 109.015 14.3152C109.631 14.3152 110.014 14.0149 110.014 12.9145V7.91406H113.032V16.6667H110.014L110.015 16.6658Z" fill="white"/>
<path d="M120.216 16.6671V11.6989C120.216 10.5652 119.832 10.2659 119.216 10.2659C118.6 10.2659 118.199 10.5662 118.199 11.6657V16.6671H115.199V7.91536H118.199V8.49931C118.749 8.0826 119.366 7.73242 120.4 7.73242C122.317 7.73242 123.234 9.0158 123.234 11.3164V16.668H120.217L120.216 16.6671Z" fill="white"/>
<path d="M129.081 16.8493C126.514 16.8493 124.981 15.2157 124.981 12.2655C124.981 9.5814 126.348 7.73071 129.148 7.73071C130.798 7.73071 131.749 8.4976 132.516 9.73108L130.449 11.2981C130.032 10.5312 129.748 10.1644 129.099 10.1644C128.331 10.1644 127.948 10.9313 127.948 12.3145C127.948 13.6976 128.365 14.4146 129.182 14.4146C129.748 14.4146 130.148 14.0977 130.699 13.2809L132.6 14.7648C131.583 16.2653 130.632 16.8493 129.081 16.8493Z" fill="white"/>
<path d="M139.315 16.6662V11.6981C139.315 10.5644 138.931 10.2651 138.315 10.2651C137.699 10.2651 137.298 10.5654 137.298 11.6649V16.6662H134.298V5.71365L137.298 4.51343V8.49754C137.848 8.08083 138.465 7.73065 139.499 7.73065C141.416 7.73065 142.334 9.01403 142.334 11.3147V16.6662H139.316H139.315Z" fill="white"/>
<path d="M0.505005 0V6.66636H7.17136V20H13.8386V6.66636H20.505V0H0.505005Z" fill="white"/>
<path d="M27.1714 13.3333V6.66602H20.505V19.9997H40.505V13.3333H27.1714Z" fill="white"/>
<path d="M40.5046 0H27.171V6.66636H40.5046V0Z" fill="white"/>
</g>
</g>
</g>
</g>
<defs>
<clipPath id="clip0_18_82795">
<rect width="142" height="20" fill="white" transform="translate(0.505005)"/>
</clipPath>
<clipPath id="clip1_18_82795">
<rect width="142" height="20" fill="white" transform="translate(0.505005)"/>
</clipPath>
<clipPath id="clip2_18_82795">
<rect width="142" height="20" fill="white" transform="translate(0.505005)"/>
</clipPath>
</defs>
</svg>
