<svg width="221" height="64" viewBox="0 0 221 64" fill="none" xmlns="http://www.w3.org/2000/svg">
<g clip-path="url(#clip0_18_82865)">
<path d="M89.441 15.1004V15.7844L90.076 15.9304C91.052 16.1744 91.199 16.7604 91.589 18.6154L92.605 23.8304L89.773 39.0634L85.916 19.9234C85.476 17.8234 85.33 16.2614 86.893 15.9194L87.625 15.7734V15.1004H78.505V15.7844L79.433 16.0294C80.361 16.2734 80.751 16.7124 81.386 19.5934L87.586 48.9364H89.186L93.336 26.7704L97.936 48.9364H99.206L105.163 20.5004C105.847 17.2304 106.14 16.3004 107.313 16.0004L108.24 15.7554V15.1004H101.54V15.7844L102.565 15.9794C104.03 16.2724 104.371 17.1994 103.687 20.9594L100.035 39.0634L96.335 19.9234C95.935 18.0194 95.7 16.2614 97.312 15.9684L98.386 15.7734V15.0894L89.441 15.1004ZM132.885 15.1924V15.8764L134.105 16.1694C135.178 16.4134 135.618 16.8044 135.618 18.1714V41.8514C135.618 44.4874 135.618 47.9544 132.883 47.9544C131.321 47.9544 130.103 46.5874 130.199 45.6594C130.296 44.1464 132.933 44.2434 133.079 41.8024C133.226 40.1024 132.151 39.3024 131.077 39.1654C129.564 38.9704 127.709 40.2394 127.659 42.7784C127.611 46.0484 129.759 49.0264 133.419 49.0264C137.469 49.0264 140.119 46.2944 140.119 41.0694L140.12 18.2194C140.12 16.8524 140.462 16.4124 141.438 16.1694L142.505 15.8654V15.1814L132.885 15.1924ZM116.435 14.9844C112.285 14.9844 109.942 18.4514 109.942 22.9914C109.942 31.4384 120.83 34.7094 120.83 42.3264C120.83 45.9394 119.316 47.9404 117.13 47.9404C113.86 47.9404 111.515 43.9874 110.93 37.6884H110.198V48.8204H110.784C111.272 47.2204 111.907 47.0634 112.444 47.0634C113.372 47.0634 114.347 49.0134 117.179 49.0134C121.524 49.0134 124.355 45.2554 124.357 40.0774C124.357 29.9224 113.469 27.4324 113.469 20.1574C113.469 18.4974 113.957 16.0574 116.399 16.0574C119.915 16.0574 121.429 20.6954 122.014 26.3104H122.746V15.1804H122.16C121.916 16.2544 121.477 16.7424 120.842 16.7424C119.719 16.7424 119.142 14.9854 116.448 14.9854L116.435 14.9844ZM124.295 24.5594V24.6794L124.318 24.6654L124.306 24.5654L124.295 24.5594Z" fill="black"/>
<mask id="mask0_18_82865" style="mask-type:luminance" maskUnits="userSpaceOnUse" x="18" y="24" width="184" height="16">
<path d="M201.505 24H18.505V40H201.505V24Z" fill="white"/>
</mask>
<g mask="url(#mask0_18_82865)">
<path d="M200.529 37.8024C199.997 37.8024 199.553 38.2604 199.553 38.8786C199.553 39.4964 199.997 39.9544 200.529 39.9544C201.061 39.9544 201.505 39.4964 201.505 38.8786C201.505 38.2604 201.061 37.8024 200.529 37.8024ZM165.211 39.8854H169.692V39.4736L169.205 39.359C168.761 39.2445 168.561 38.9928 168.561 38.3516V32.126H169.604C170.247 32.126 170.58 32.2861 170.624 33.6826L170.735 36.6123C170.824 39.2445 171.556 39.9772 172.799 39.9772C174.063 39.9772 174.396 39.0843 174.396 37.8255V37.2988H173.929V37.6878C173.929 38.5351 173.819 39.1302 173.508 39.1302C173.22 39.1302 173.197 38.9014 173.131 37.8483L172.998 35.8343C172.82 33.1331 172.488 32.1946 170.557 31.8281C172.399 31.3249 173.53 29.9284 173.53 27.9369C173.53 25.3503 171.556 24.1143 169.67 24.1143H162.105V24.5264L162.527 24.6178C163.325 24.8011 163.348 25.236 163.348 27.0902V36.2002C163.348 38.2376 162.793 39.2217 161.528 39.2217C160.397 39.2217 159.776 38.6494 159.776 36.429V25.6022C159.776 24.9613 159.975 24.7783 160.463 24.6637L161.062 24.5264V24.1143H156.426V24.5264L156.914 24.6637C157.358 24.8011 157.513 24.9844 157.513 25.625V36.2689C157.513 38.6722 158.866 40 160.93 40C162.993 40 164.013 38.6722 164.013 36.2002V26.266C164.013 25.03 164.257 24.595 165.233 24.595C166.01 24.595 166.343 24.8698 166.343 25.625V38.3516C166.343 38.9928 166.143 39.2217 165.699 39.3363L165.211 39.4736V39.8854ZM194.983 25.625C194.983 24.9844 195.183 24.7783 195.626 24.6865L196.225 24.5492V24.1143H191.611V24.5264L192.099 24.6637C192.543 24.8011 192.742 24.9844 192.742 25.625V38.4437C192.742 39.0615 192.498 39.4049 191.81 39.4049C191.012 39.4049 190.9 39.1302 190.612 37.7799L187.773 24.0687H186.885L184.179 37.3447C183.868 38.8324 183.713 39.1761 183.114 39.359L182.737 39.4736V39.8854H185.909V39.4736L185.443 39.3818C184.778 39.2445 184.6 38.8786 184.933 37.1387L186.531 28.6465L188.283 37.6423C188.549 38.947 188.527 39.1989 187.573 39.3818L187.107 39.4736V39.8854H198.865V34.6667H198.443C198.222 37.07 197.756 39.3363 195.87 39.3363H194.983V25.625ZM188.061 35.6279V35.0101H185.066L184.978 35.6279H188.061ZM175.682 25.8997V36.8412C175.682 38.4893 175.682 39.2676 174.884 39.4049L174.484 39.4736V39.8854H177.745V39.4736C176.326 39.2676 176.326 38.764 176.326 36.9785V26.5866L175.793 26.083L181.229 39.8854H182.16V27.1588C182.16 25.2819 182.16 24.8698 183.048 24.6178L183.358 24.5264V24.1143H180.008V24.5264L180.385 24.6178C181.517 24.8239 181.517 25.2819 181.517 27.0215V34.987L181.739 34.9183L177.612 24.1143H174.44V24.5264L174.75 24.6178C175.106 24.7324 175.305 25.1445 175.682 25.8997ZM168.561 24.6637H169.448C170.336 24.6637 171.157 25.2588 171.157 28.2347C171.157 31.279 170.536 31.5765 169.293 31.5765H168.561V24.6637ZM153.786 31.8512C153.786 38.4662 153.254 39.4049 152.1 39.4049C150.947 39.4049 150.436 38.4662 150.436 31.8968C150.436 25.5335 150.991 24.6178 152.1 24.6178C153.254 24.6178 153.786 25.5335 153.786 31.8512ZM156.205 31.9886C156.205 27.6165 154.851 24 152.1 24C149.327 24 148.018 27.6165 148.018 31.9886C148.018 36.3835 149.371 40 152.1 40C154.918 40 156.205 36.3835 156.205 31.9886ZM146.71 25.625C146.71 24.9844 146.865 24.7783 147.308 24.6637L147.796 24.5264V24.1143H143.204V24.5264L143.759 24.6637C144.202 24.7783 144.447 24.9385 144.447 25.6022V36.6123C144.447 38.1458 144.313 39.3818 143.204 39.3818C142.494 39.3818 141.962 38.8096 141.984 38.3978C142.05 37.6878 143.204 37.734 143.293 36.5892C143.359 35.7653 142.849 35.4219 142.383 35.3535C141.696 35.2617 140.853 35.8568 140.83 37.0472C140.808 38.5807 141.784 39.9772 143.448 39.9772C145.29 39.9772 146.71 38.6953 146.71 36.2458V25.625ZM72.6129 25.625C72.6129 24.9844 72.8126 24.7783 73.2562 24.6865L73.8553 24.5492V24.1143H69.241V24.5264L69.729 24.6637C70.1726 24.8011 70.3723 24.9844 70.3723 25.625V38.4437C70.3723 39.0615 70.1282 39.4049 69.4404 39.4049C68.6419 39.4049 68.5087 39.1302 68.2204 37.7799L65.3807 24.0687H64.4935L61.7869 37.3447C61.4765 38.8324 61.321 39.1761 60.7222 39.359L60.3448 39.4736V39.8854H63.5174V39.4736L63.0514 39.3818C62.386 39.2445 62.2084 38.8786 62.5413 37.1387L64.1386 28.6006L65.8911 37.6423C66.135 38.947 66.135 39.1989 65.1813 39.3818L64.7153 39.4736V39.8854H76.4953V34.6667H76.0738C75.852 37.07 75.3861 39.3363 73.5004 39.3363H72.6129V25.625ZM134.374 24.6637H134.863C136.238 24.6637 136.704 26.9297 136.859 29.3333H137.281V24.1143H129.228V29.3333H129.649C129.805 26.9297 130.271 24.6637 131.646 24.6637H132.134V38.3516C132.134 38.9928 131.935 39.2217 131.491 39.3363L130.914 39.4736V39.8854H135.706V39.4736L135.018 39.3135C134.596 39.1989 134.374 39.0615 134.374 38.3516V24.6637ZM124.236 31.9655L124.924 31.9886C125.922 32.0114 126.21 32.4007 126.411 34.8958H126.832V28.5322H126.411C126.166 30.5237 125.9 31.3704 124.946 31.3935L124.236 31.4163V24.6638H125.767C127.475 24.6638 127.853 26.8841 128.096 29.3333H128.518V24.1143H120.864V24.5264L121.352 24.6638C121.862 24.8011 121.996 25.1217 121.996 25.6481V38.3516C121.996 38.9928 121.796 39.2217 121.352 39.3363L120.864 39.4736V39.8854H128.74V34.6667H128.318C128.052 37.0472 127.764 39.3363 125.767 39.3363H124.236V31.9655ZM115.873 31.9655L116.561 31.9886C117.559 32.0114 117.847 32.4007 118.047 34.8958H118.468V28.5322H118.047C117.803 30.5237 117.537 31.3704 116.583 31.3935L115.873 31.4163V24.6638H117.404C119.112 24.6638 119.489 26.9297 119.733 29.3333H120.154V24.1143H112.279V24.5264L112.989 24.6638C113.499 24.8011 113.632 25.1217 113.632 25.6481V38.3516C113.632 38.9928 113.432 39.2217 112.989 39.3363L112.501 39.4736V39.8854H120.376V34.6667H119.955C119.689 37.0472 119.4 39.3363 117.404 39.3363H115.873V31.9655ZM106.755 24.6637H107.421C108.308 24.6637 109.129 25.2588 109.129 28.2347C109.129 31.2331 108.508 31.5765 107.265 31.5765H106.755V24.6637ZM103.405 39.8854H107.886V39.4736L107.398 39.359C106.955 39.2445 106.755 38.9928 106.755 38.3516V32.126H107.576C108.219 32.126 108.552 32.4007 108.596 33.6826L108.707 36.6123C108.796 39.2445 109.528 39.9772 110.77 39.9772C112.035 39.9772 112.367 39.0843 112.367 37.8255V37.2988H111.902V37.6878C111.902 38.5351 111.791 39.1302 111.48 39.1302C111.192 39.1302 111.169 38.9014 111.103 37.8483L110.97 35.8343C110.792 33.0644 110.438 32.1946 108.53 31.8281C110.371 31.3249 111.502 29.9284 111.502 27.9369C111.502 25.3503 109.528 24.1143 107.642 24.1143H103.405V24.5264L103.893 24.6637C104.337 24.8011 104.536 24.9844 104.536 25.625V38.3516C104.536 38.9928 104.337 39.2217 103.893 39.3363L103.405 39.4736V39.8854ZM100.011 24.6637H100.499C101.874 24.6637 102.34 26.9297 102.496 29.3333H102.917V24.1143H94.8641V29.3333H95.2855C95.4408 26.9297 95.9067 24.6637 97.2823 24.6637H97.7703V38.3516C97.7703 38.9928 97.5703 39.2217 97.127 39.3363L96.55 39.4736V39.8854H101.231V39.4736L100.654 39.3363C100.078 39.1989 100.011 38.7412 100.011 38.3516V24.6637ZM94.8861 35.7881C94.8861 31.0957 89.8948 29.8597 89.8948 26.4492C89.8948 25.7168 90.1611 24.6178 91.27 24.6178C92.8673 24.6178 93.4664 26.7467 93.7327 29.3333H94.1542V24.1143H93.8879C93.7769 24.6179 93.5772 24.847 93.2891 24.847C92.7787 24.847 92.5124 24.0228 91.2924 24.0228C89.4067 24.0228 88.1199 25.6481 88.1199 27.7767C88.1199 31.6452 93.1115 33.2702 93.1115 36.8412C93.1115 38.4662 92.3793 39.3818 91.3811 39.3818C89.8948 39.3818 88.9187 37.5739 88.6524 34.6667H88.2309V39.8854H88.4972C88.719 39.1302 89.0073 39.0615 89.2512 39.0615C89.673 39.0615 90.1166 39.9772 91.4031 39.9772C93.3778 39.9772 94.8861 38.2148 94.8861 35.7881ZM80.3554 25.625C80.3554 24.9844 80.5551 24.7783 80.9986 24.6865L81.5977 24.5492V24.1143H76.9834V24.5264L77.4715 24.6637C77.915 24.8011 78.1147 24.9844 78.1147 25.625V38.3516C78.1147 38.9928 77.915 39.2217 77.4715 39.3363L76.9834 39.4736V39.8854H84.2377V34.6667H83.816C83.5945 37.07 83.1285 39.3363 81.2428 39.3363H80.3554V25.625ZM65.669 35.6279V35.0101H62.6744L62.5855 35.6279H65.669ZM52.8466 39.9313H53.7562L55.8192 28.6696H55.5087L57.7714 39.9313H58.5702L61.2768 26.6553C61.5651 25.2588 61.7204 24.7783 62.2529 24.6406L62.6744 24.5264V24.1143H59.5463V24.5264L60.0123 24.6178C60.6777 24.7552 60.8329 25.1673 60.5225 26.861L58.7699 35.7653H59.0362L57.2612 26.3805C57.0836 25.4876 56.9729 24.7552 57.7051 24.6178L58.1929 24.5264V24.1143H53.9114V24.5264L54.1997 24.595C54.6436 24.7093 54.7102 24.9844 54.8875 25.8542L55.5753 29.2646L55.4421 27.2044L53.9114 35.5365H54.1111L52.3141 26.3805C52.1144 25.442 52.0478 24.7324 52.7577 24.595L53.0908 24.5264V24.1143H48.7203V24.5264L49.1418 24.6406C49.5409 24.7552 49.763 24.9613 50.0293 26.2201L52.8466 39.9313ZM41 31.9655L41.6878 31.9886C42.686 32.0114 42.9743 32.4007 43.174 34.8958H43.5955V28.5322H43.174C42.9302 30.5237 42.6639 31.3704 41.7099 31.3935L41 31.4163V24.6638H42.5308C44.2388 24.6638 44.6161 26.9297 44.86 29.3333H45.2815V24.1143H37.628V24.5264L38.1161 24.6638C38.6263 24.8011 38.7594 25.1217 38.7594 25.6481V38.3516C38.7594 38.9928 38.5597 39.2217 38.1161 39.3363L37.628 39.4736V39.8854H45.5036V34.6667H45.0818C44.8158 37.0472 44.5275 39.3363 42.5308 39.3363H41V31.9655ZM27.0459 39.8854H31.5937V39.4736L31.0836 39.359C30.6842 39.2676 30.4179 38.9928 30.4179 38.3516V32.1032H33.7677V38.3516C33.7677 38.9928 33.5018 39.2676 33.1024 39.359L32.5922 39.4736V39.8854H37.14V39.4736L36.6519 39.3363C36.2083 39.2217 36.0084 38.9697 36.0084 38.3291V25.625C36.0084 24.9844 36.2083 24.7783 36.6519 24.6637L37.14 24.5264V24.1143H32.5922V24.5264L33.1024 24.6637C33.4794 24.7783 33.7677 24.9385 33.7677 25.6022V31.485H30.4179V25.6022C30.4179 24.9613 30.6621 24.7783 31.0836 24.6637L31.5937 24.5264V24.1143H27.0459V24.5264L27.534 24.6637C27.9779 24.8011 28.1773 24.9844 28.1773 25.625V38.3516C28.1773 38.9928 27.9779 39.2217 27.534 39.3363L27.0459 39.4736V39.8854ZM23.6516 24.6637H24.1399C25.5152 24.6637 25.9811 26.9297 26.1364 29.3333H26.5579V24.1143H18.505V29.3333H18.9265C19.0817 26.9297 19.5477 24.6637 20.9229 24.6637H21.411V38.3516C21.411 38.9928 21.2116 39.2217 20.7677 39.3363L20.191 39.4736V39.8854H24.9829V39.4736L24.2952 39.3135C23.8737 39.1989 23.6516 39.0615 23.6516 38.3516V24.6637Z" fill="white"/>
</g>
</g>
<defs>
<clipPath id="clip0_18_82865">
<rect width="220" height="64" fill="white" transform="translate(0.505005)"/>
</clipPath>
</defs>
</svg>
